<svg width="36" height="36" viewBox="0 0 36 36" fill="none" xmlns="http://www.w3.org/2000/svg">
    <g clip-path="url(#clip0_10_4)">
        <rect x="0.5" y="0.5" width="35" height="35" rx="8" fill="url(#paint0_linear_10_4)"/>
        <path d="M6.73704 12.8182H9.46147V19.7983C9.45816 20.4612 9.29078 21.0445 8.95934 21.5483C8.63121 22.0488 8.17714 22.4399 7.59712 22.7216C7.02042 23 6.35588 23.1392 5.60352 23.1392C4.95058 23.1392 4.35399 23.0265 3.81374 22.8011C3.2735 22.5724 2.84263 22.2145 2.52113 21.7273C2.19963 21.2367 2.04054 20.6004 2.04386 19.8182H4.80806C4.818 20.0734 4.86109 20.2888 4.93732 20.4645C5.01687 20.6402 5.12624 20.7727 5.26545 20.8622C5.40797 20.9484 5.58031 20.9915 5.78249 20.9915C5.98799 20.9915 6.16033 20.9467 6.29954 20.8572C6.44206 20.7678 6.54978 20.6352 6.62269 20.4595C6.69561 20.2805 6.73372 20.0601 6.73704 19.7983V12.8182Z"
              fill="url(#paint1_linear_10_4)"/>
        <path d="M30.4828 16C30.4563 15.6686 30.332 15.41 30.1099 15.2244C29.8912 15.0388 29.5581 14.946 29.1106 14.946C28.8256 14.946 28.5919 14.9808 28.4096 15.0504C28.2306 15.1167 28.0981 15.2079 28.0119 15.3239C27.9257 15.4399 27.881 15.5724 27.8777 15.7216C27.871 15.8442 27.8926 15.9553 27.9423 16.0547C27.9953 16.1508 28.0782 16.2386 28.1909 16.3182C28.3036 16.3944 28.4477 16.464 28.6234 16.527C28.7991 16.59 29.0079 16.6463 29.2498 16.696L30.085 16.875C30.6485 16.9943 31.1307 17.1518 31.5318 17.3473C31.9328 17.5429 32.2609 17.7732 32.5162 18.0384C32.7714 18.3002 32.9586 18.5952 33.0779 18.9233C33.2006 19.2514 33.2636 19.6094 33.2669 19.9972C33.2636 20.6667 33.0962 21.2334 32.7647 21.6974C32.4333 22.1615 31.9593 22.5144 31.3429 22.7564C30.7297 22.9983 29.9922 23.1193 29.1305 23.1193C28.2456 23.1193 27.4733 22.9884 26.8137 22.7266C26.1575 22.4647 25.6471 22.062 25.2825 21.5185C24.9212 20.9716 24.7389 20.2723 24.7356 19.4205H27.3606C27.3772 19.732 27.4551 19.9938 27.5943 20.206C27.7335 20.4181 27.929 20.5788 28.1809 20.6882C28.4361 20.7976 28.7394 20.8523 29.0907 20.8523C29.3857 20.8523 29.6326 20.8158 29.8315 20.7429C30.0304 20.67 30.1812 20.5689 30.2839 20.4396C30.3867 20.3104 30.4397 20.1629 30.443 19.9972C30.4397 19.8414 30.3883 19.7055 30.2889 19.5895C30.1928 19.4702 30.0337 19.3641 29.8116 19.2713C29.5895 19.1752 29.2896 19.0857 28.9118 19.0028L27.8975 18.7841C26.996 18.5885 26.2851 18.2621 25.7647 17.8047C25.2477 17.344 24.9908 16.7159 24.9941 15.9205C24.9908 15.2741 25.1632 14.709 25.5112 14.2251C25.8625 13.7379 26.3481 13.3584 26.9679 13.0866C27.591 12.8149 28.3052 12.679 29.1106 12.679C29.9326 12.679 30.6435 12.8165 31.2434 13.0916C31.8433 13.3667 32.3057 13.7545 32.6305 14.255C32.9586 14.7521 33.1243 15.3338 33.1277 16H30.4828Z"
              fill="url(#paint2_linear_10_4)"/>
        <path d="M17.4401 23H13.5225V12.8182H17.4003C18.4477 12.8182 19.3525 13.022 20.1148 13.4297C20.8804 13.834 21.4704 14.4174 21.8847 15.1797C22.3023 15.9387 22.5111 16.8485 22.5111 17.9091C22.5111 18.9697 22.3039 19.8812 21.8896 20.6435C21.4753 21.4025 20.8887 21.9858 20.1297 22.3935C19.3707 22.7978 18.4742 23 17.4401 23ZM16.2867 20.6534H17.3406C17.8444 20.6534 18.2736 20.5722 18.6283 20.4098C18.9862 20.2474 19.258 19.9673 19.4436 19.5696C19.6325 19.1719 19.727 18.6184 19.727 17.9091C19.727 17.1998 19.6309 16.6463 19.4387 16.2486C19.2497 15.8509 18.9713 15.5708 18.6034 15.4084C18.2388 15.246 17.7914 15.1648 17.2611 15.1648H16.2867V20.6534Z"
              fill="url(#paint3_linear_10_4)"/>
    </g>
    <defs>
        <linearGradient id="paint0_linear_10_4" x1="2.93056" y1="50.0833" x2="22.375" y2="42.3056"
                        gradientUnits="userSpaceOnUse">
            <stop stop-color="#24252F"/>
            <stop offset="0.0001" stop-color="#020202"/>
            <stop offset="1" stop-color="#24252F"/>
        </linearGradient>
        <linearGradient id="paint1_linear_10_4" x1="9.2" y1="16" x2="2.0042" y2="16.7619"
                        gradientUnits="userSpaceOnUse">
            <stop stop-color="#077F0E"/>
            <stop offset="1" stop-color="#13E620"/>
        </linearGradient>
        <linearGradient id="paint2_linear_10_4" x1="25.7188" y1="21" x2="33.0594" y2="19.964"
                        gradientUnits="userSpaceOnUse">
            <stop offset="0.66" stop-color="#F133DE"/>
            <stop offset="1" stop-color="#581282"/>
        </linearGradient>
        <linearGradient id="paint3_linear_10_4" x1="14.7188" y1="21" x2="22.0594" y2="19.964"
                        gradientUnits="userSpaceOnUse">
            <stop offset="0.595" stop-color="#33ABF1"/>
            <stop offset="1" stop-color="#184D90"/>
        </linearGradient>
        <clipPath id="clip0_10_4">
            <rect width="36" height="36" fill="white"/>
        </clipPath>
    </defs>
</svg>
